<svg width="57" height="75" viewBox="0 0 57 75" fill="none" xmlns="http://www.w3.org/2000/svg">
<path d="M29.027 74.1C46.527 74.1 56.727 65.7 56.727 52.2C56.727 43 51.227 37.3 42.827 35.4C50.027 32.9 54.627 27.9 54.627 19.9C54.627 14.3 52.327 9.5 48.027 6C43.727 2.5 37.627 0.5 29.727 0.5C21.627 0.5 15.127 2.9 10.727 6.9C6.227 11 3.727 16.7 3.327 23.2H17.627C18.427 16.4 22.627 12.4 29.427 12.4C36.127 12.4 39.327 16.2 39.327 21.3C39.327 27.4 36.027 30.8 28.427 30.8H23.227V41.6H28.827C36.527 41.6 40.327 45 40.327 51.9C40.327 58.3 36.527 62.2 28.427 62.2C19.727 62.2 16.227 57.2 15.527 50.3H0.927002C1.627 64.8 10.727 74.1 29.027 74.1Z" fill="#091B3A"/>
</svg>
