<?xml version="1.0" encoding="utf-8"?><svg viewBox="0 0 500 326.7" xmlns="http://www.w3.org/2000/svg" xmlns:xlink="http://www.w3.org/1999/xlink"><style>:root>svg{display:none}:root>svg:target{display:block}</style><svg viewBox="0 0 31 72" id="1" xmlns="http://www.w3.org/2000/svg"><path d="M14.632 16.5V72h16.2V.5h-14.2L.132 12.2V26l14.5-9.5z"/></svg><svg viewBox="0 0 55 73" id="2" xmlns="http://www.w3.org/2000/svg"><path d="M.027 70.4V73h54V60.7h-27.8l13.5-13.2c8.3-8 13.8-15.8 13.8-25.3 0-6.4-2.3-11.8-6.4-15.7-4.3-3.7-10.5-6-18.4-6-16.1 0-26 8.8-26.8 25.5h14.7c1.1-9.5 5-13.1 11.4-13.1 6.3 0 9.5 3.7 9.5 9.7 0 6.5-4.4 12.8-11.3 20.1L.027 70.4z"/></svg><svg viewBox="0 0 57 75" id="3" xmlns="http://www.w3.org/2000/svg"><path d="M29.027 74.1c17.5 0 27.7-8.4 27.7-21.9 0-9.2-5.5-14.9-13.9-16.8 7.2-2.5 11.8-7.5 11.8-15.5 0-5.6-2.3-10.4-6.6-13.9S37.627.5 29.727.5c-8.1 0-14.6 2.4-19 6.4-4.5 4.1-7 9.8-7.4 16.3h14.3c.8-6.8 5-10.8 11.8-10.8 6.7 0 9.9 3.8 9.9 8.9 0 6.1-3.3 9.5-10.9 9.5h-5.2v10.8h5.6c7.7 0 11.5 3.4 11.5 10.3 0 6.4-3.8 10.3-11.9 10.3-8.7 0-12.2-5-12.9-11.9H.927c.7 14.5 9.8 23.8 28.1 23.8z"/></svg><svg viewBox="0 0 61 72" id="4" xmlns="http://www.w3.org/2000/svg"><path d="M35.401 57.8V72h15.7V57.8h9.4V46.2h-9.4V.5h-19.9L.302 51.9v5.9h35.1zm.3-11.6h-19.2l19.2-33.5v33.5z"/></svg><svg viewBox="0 0 27 26" id="arrow-down" xmlns="http://www.w3.org/2000/svg"><path d="M13.5 24L26 12.535M13.5 24L1 12.535M13.5 24V0" stroke-width="2"/></svg><svg viewBox="0 0 603 394" id="dashed-line" xmlns="http://www.w3.org/2000/svg"><path d="M90 1l257 31M468 89l134 191M371 88L226 269M520 393l-282-43M1 133l129 154" stroke-width="2" stroke-dasharray="10 10"/></svg><svg viewBox="0 0 95 92" id="sidebar-arrow-next" xmlns="http://www.w3.org/2000/svg"><path d="M47.5 90L94 47.005M47.5 90L1 47.005M47.5 90V0" stroke-width="2"/></svg></svg>